HIERARCHY
ROOT Hips
{
	OFFSET 0.00000 0.00000 0.00000
	CHANNELS 6 Xposition Yposition Zposition Zrotation Yrotation Xrotation 
	JOINT LHipJoint
	{
		OFFSET 0 0 0
		CHANNELS 3 Zrotation Yrotation Xrotation
		JOINT LeftHip
		{
			OFFSET 1.59715 -1.91394 0.36268
			CHANNELS 3 Zrotation Yrotation Xrotation
			JOINT LeftKnee
			{
				OFFSET 2.53886 -6.97546 0.00000
				CHANNELS 3 Zrotation Yrotation Xrotation
				JOINT LeftAnkle
				{
					OFFSET 2.77084 -7.61284 0.00000
					CHANNELS 3 Zrotation Yrotation Xrotation
					JOINT LeftToe
					{
						OFFSET 0.19855 -0.54550 2.06057
						CHANNELS 3 Zrotation Yrotation Xrotation
						End Site
						{
							OFFSET 0.00000 -0.00000 1.07182
						}
					}
				}
			}
		}
	}
	JOINT RHipJoint
	{
		OFFSET 0 0 0
		CHANNELS 3 Zrotation Yrotation Xrotation
		JOINT RightHip
		{
			OFFSET -1.71086 -1.91394 0.36268
			CHANNELS 3 Zrotation Yrotation Xrotation
			JOINT RightKnee
			{
				OFFSET -2.59448 -7.12828 0.00000
				CHANNELS 3 Zrotation Yrotation Xrotation
				JOINT RightAnkle
				{
					OFFSET -2.80237 -7.69945 0.00000
					CHANNELS 3 Zrotation Yrotation Xrotation
					JOINT RightToe
					{
						OFFSET -0.18280 -0.50224 2.06614
						CHANNELS 3 Zrotation Yrotation Xrotation
						End Site
						{
							OFFSET -0.00000 -0.00000 1.07055
						}
					}
				}
			}
		}
	}
	JOINT lowerback
	{
		OFFSET 0 0 0
		CHANNELS 3 Zrotation Yrotation Xrotation
		JOINT Chest
		{
			OFFSET 0.04838 1.91536 -0.09733
			CHANNELS 3 Zrotation Yrotation Xrotation
			JOINT Chest2
			{
				OFFSET 0.04097 1.92183 -0.02751
				CHANNELS 3 Zrotation Yrotation Xrotation
				JOINT lowerneck
				{
					OFFSET 0 0 0
					CHANNELS 3 Zrotation Yrotation Xrotation
					JOINT Neck
					{
						OFFSET 0.18766 3.12816 0.13727
						CHANNELS 3 Zrotation Yrotation Xrotation
						JOINT Head
						{
							OFFSET -0.11178 3.16074 0.02732
							CHANNELS 3 Zrotation Yrotation Xrotation
							End Site
							{
								OFFSET 0.47685 1.04189 0.57898
							}
						}
					}
				}
				JOINT LeftCollar
				{
					OFFSET 0 0 0
					CHANNELS 3 Zrotation Yrotation Xrotation
					JOINT LeftShoulder
					{
						OFFSET 3.49325 0.99827 -0.10681
CHANNELS 3 Zrotation Xrotation Yrotation
						JOINT LeftElbow
						{
OFFSET 0 -5.128420 0.000000
CHANNELS 3 Zrotation Xrotation Yrotation
							JOINT LeftWrist
							{
OFFSET 0 -3.473960 0.000000
CHANNELS 3 Zrotation Xrotation Yrotation
								JOINT lhand
								{
									OFFSET 0 0 0
CHANNELS 3 Zrotation Xrotation Yrotation
									JOINT LFingers
									{
OFFSET 0 -0.728610 0.000000
CHANNELS 3 Zrotation Xrotation Yrotation
										End Site
										{
OFFSET 0 -0.587420 0.000000
										}
									}
								}
								JOINT LThumb
								{
OFFSET 0 0.000000 0.000000
CHANNELS 3 Zrotation Xrotation Yrotation
									End Site
									{
OFFSET 0 -0.596390 0.596390
									}
								}
							}
						}
					}
				}
				JOINT RightCollar
				{
					OFFSET 0 0 0
					CHANNELS 3 Zrotation Yrotation Xrotation
					JOINT RightShoulder
					{
						OFFSET -3.23261 1.50670 -0.18692
CHANNELS 3 Zrotation Xrotation Yrotation
						JOINT RightElbow
						{
OFFSET 0 -5.484770 -0.000000
CHANNELS 3 Zrotation Xrotation Yrotation
							JOINT RightWrist
							{
OFFSET 0 -3.478560 0.000000
CHANNELS 3 Zrotation Xrotation Yrotation
								JOINT rhand
								{
									OFFSET 0 0 0
CHANNELS 3 Zrotation Xrotation Yrotation
									JOINT RFingers
									{
OFFSET 0 -0.709970 0.000000
CHANNELS 3 Zrotation Xrotation Yrotation
										End Site
										{
OFFSET 0 -0.572400 0.000000
										}
									}
								}
								JOINT RThumb
								{
OFFSET 0 0.000000 0.000000
CHANNELS 3 Zrotation Xrotation Yrotation
									End Site
									{
OFFSET 0 -0.581140 0.581140
									}
								}
							}
						}
					}
				}
			}
		}
	}
}
MOTION
Frames: 10
Frame Time: 0.008333333333333333
1.268648 18.103371 8.257280 -175.082676 -46.061677 180.380853 0.000000 0.000000 0.000000 -13.619139 -16.466811 -15.665083 3.103751 10.861182 31.813157 0.881571 -7.934702 -16.838377 0.000726 0.165674 0.455118 0.000000 0.000000 0.000000 23.960790 23.575706 -12.978565 -4.242228 -12.475803 37.436832 2.423702 28.818099 -1.777852 -4.571554 -12.884345 38.937189 1.123202 -1.817716 7.936798 4.405999 -2.312600 0.588227 4.209038 -1.204913 -3.701942 -7.430658 -6.634273 -8.955089 2.520480 -11.377945 31.721186 0.531066 -6.373809 12.564307 0.000000 0.000000 0.000000 -2.464989 6.204200 -14.242307 20.274477 -30.971661 5.671898 15.272198 12.584780 -30.466860 0.000000 0.000000 0.000000 -7.125000 0.000000 0.000000 -18.731869 60.371204 7.169995 0.000000 0.000000 0.000000 -5.574925 1.330144 13.325490 -20.422642 -31.148155 -5.748396 -30.624517 -18.857491 -14.024451 0.000000 0.000000 0.000000 7.125000 0.000000 0.000000 -2.146661 13.801479 -1.574148
0.894332 18.130324 8.440099 -175.378559 -36.770295 182.825855 0.000000 0.000000 0.000000 -14.786629 -14.216858 -16.581874 3.126367 10.896803 31.932644 0.957928 -2.565019 -17.819207 0.109624 2.128789 5.861943 0.000000 0.000000 0.000000 22.926904 19.514294 -19.638132 -5.174940 -13.577981 41.572718 1.501393 25.574476 -6.086518 -1.480852 -7.584530 21.509061 0.525857 -1.857381 7.385049 4.605766 -2.420860 0.198977 4.755964 -1.247036 -3.758228 -7.228800 -5.627025 -10.189440 1.905255 -9.860183 32.202437 0.410222 -5.799616 12.873775 0.000000 0.000000 0.000000 -2.443008 5.189309 -15.464656 20.414780 -31.138767 5.744313 14.878424 12.576354 -30.460354 0.000000 0.000000 0.000000 -7.125000 0.000000 0.000000 -19.147491 60.271891 7.290453 0.000000 0.000000 0.000000 -4.736942 1.624086 9.625164 -20.363650 -31.077942 -5.717920 -30.390753 -18.339053 -13.390899 0.000000 0.000000 0.000000 7.125000 0.000000 0.000000 -2.057315 14.557977 -1.475105
0.559947 18.135926 8.551425 -175.638477 -27.240224 184.230992 0.000000 0.000000 0.000000 -16.588753 -12.282739 -16.367358 3.139995 10.918273 32.004864 0.886357 4.292068 -19.839358 0.214544 2.981704 8.227879 0.000000 0.000000 0.000000 23.578922 13.446746 -25.529520 -6.121740 -14.545233 45.468257 -0.920526 10.356619 -17.579424 -0.069756 1.674587 -4.607743 0.171300 -1.694159 7.462187 4.265652 -2.252417 0.477588 4.575402 -1.164675 -3.524610 -6.647239 -4.426401 -11.042512 1.634582 -8.003992 31.582056 0.466545 -4.946057 12.639627 0.000000 0.000000 0.000000 -1.198130 4.094706 -16.053567 21.243354 -32.111287 6.178791 14.729165 12.057025 -30.632990 0.000000 0.000000 0.000000 -7.125000 0.000000 0.000000 -19.439103 60.398799 7.465513 0.000000 0.000000 0.000000 -4.400993 1.305515 11.022852 -20.027682 -30.675691 -5.545473 -29.244112 -16.442786 -11.650167 0.000000 0.000000 0.000000 7.125000 0.000000 0.000000 -1.440253 16.687388 -0.966244
0.286860 18.143629 8.535503 -174.861129 -19.446796 184.978402 0.000000 0.000000 0.000000 -17.166292 -11.250877 -15.959826 3.124262 10.893622 31.921951 0.676243 10.044868 -22.258103 0.419130 4.155233 11.513767 0.000000 0.000000 0.000000 24.870990 10.016246 -28.536035 -5.872073 -14.303118 44.465959 -1.115699 -1.569795 -20.582056 -0.063056 -1.604228 4.413359 0.445237 -1.525958 7.395975 4.531558 -2.055171 0.743583 4.669830 -1.094958 -3.226055 -5.809800 -3.180499 -12.175530 0.301168 -5.923182 31.737861 0.079157 -4.121414 12.754620 0.000000 0.000000 0.000000 -0.855523 2.800617 -15.360767 21.255883 -32.125868 6.185492 14.969644 11.927799 -31.157750 0.000000 0.000000 0.000000 -7.125000 0.000000 0.000000 -19.593608 60.948094 7.784620 0.000000 0.000000 0.000000 -4.338979 1.093616 11.168661 -19.834650 -30.442517 -5.447353 -28.295359 -16.318542 -13.726996 0.000000 0.000000 0.000000 7.125000 0.000000 0.000000 -0.601593 14.475372 -0.431929
0.094226 18.181890 8.381911 -174.473523 -14.641339 185.769252 0.000000 0.000000 0.000000 -17.787668 -11.115796 -14.563657 2.879201 10.496881 30.601194 0.529587 13.640226 -24.600714 0.886769 6.002552 16.791912 0.000000 0.000000 0.000000 23.853125 12.641782 -27.989753 -4.679146 -13.012802 39.416772 -1.160907 1.622119 -19.894605 -0.049395 -1.411644 3.882536 0.613255 -1.827260 7.845257 4.729433 -2.441737 0.568747 4.850338 -1.293208 -3.627683 -5.088634 -2.030505 -12.342650 -0.828072 -4.136989 31.674609 -0.225415 -3.441195 12.648584 0.000000 0.000000 0.000000 -0.799224 2.168146 -15.320878 20.711490 -31.490041 5.898497 15.570334 12.811825 -30.866842 0.000000 0.000000 0.000000 -7.125000 0.000000 0.000000 -18.718556 60.819821 7.365203 0.000000 0.000000 0.000000 -4.097459 2.003325 11.402091 -20.222243 -30.909098 -5.645097 -30.367136 -17.040061 -12.757371 0.000000 0.000000 0.000000 7.125000 0.000000 0.000000 -2.106993 15.282799 -1.478145
0.001219 18.223101 8.097048 -173.986601 -14.209736 186.649880 0.000000 0.000000 0.000000 -17.499234 -11.269589 -13.832498 2.687854 10.171748 29.534677 0.496346 14.619266 -25.409418 0.919277 6.108684 17.100041 0.000000 0.000000 0.000000 22.804162 16.207457 -26.472887 -3.734561 -11.798531 35.023016 -1.036807 4.501569 -18.267366 -0.219253 -3.014357 8.318756 0.982330 -2.567675 7.739478 5.181310 -3.420377 0.413225 5.220999 -1.798940 -3.647160 -4.531369 -1.452588 -12.655022 -1.444373 -3.136312 31.229026 -0.405046 -2.991206 12.482801 0.000000 0.000000 0.000000 -0.921029 1.337391 -17.779044 20.643536 -31.409853 5.863067 14.568837 13.052090 -30.861554 0.000000 0.000000 0.000000 -7.125000 0.000000 0.000000 -19.788055 60.574740 7.689071 0.000000 0.000000 0.000000 -3.804092 2.513123 9.398159 -19.603428 -30.161482 -5.330686 -30.236299 -16.586188 -13.242471 0.000000 0.000000 0.000000 7.125000 0.000000 0.000000 -1.967937 14.749079 -1.402932
-0.041308 18.167163 7.655560 -173.600783 -14.839410 186.756623 0.000000 0.000000 0.000000 -17.101509 -10.477204 -12.939982 2.758851 10.293980 29.934125 0.613508 14.605250 -26.336137 0.607894 4.989792 13.879570 0.000000 0.000000 0.000000 23.832251 16.906664 -24.112803 -3.514825 -11.485196 33.934096 -0.906021 3.496601 -17.150892 -0.476293 -4.422915 12.270047 1.583880 -2.912798 7.251427 5.348143 -3.876805 0.505668 5.064092 -2.050429 -3.268041 -4.275350 -1.202673 -12.528331 -1.536161 -2.747862 30.872438 -0.413870 -2.778880 12.296908 0.000000 0.000000 0.000000 -1.258998 1.022231 -20.543433 21.468130 -32.370736 6.298715 14.176700 13.014435 -30.612236 0.000000 0.000000 0.000000 -7.125000 0.000000 0.000000 -20.010350 60.248783 7.623394 0.000000 0.000000 0.000000 -3.320621 3.355451 7.826908 -18.435954 -28.711707 -4.756873 -30.129916 -15.890921 -14.285476 0.000000 0.000000 0.000000 7.125000 0.000000 0.000000 -1.785574 13.580925 -1.317069
-0.076612 18.113391 7.123072 -172.269588 -15.713769 185.915616 0.000000 0.000000 0.000000 -15.160575 -9.486072 -13.698207 3.686182 11.730602 34.785718 0.878613 13.094061 -26.833133 0.117769 2.210982 6.089218 0.000000 0.000000 0.000000 26.139403 16.699732 -21.904470 -3.483645 -11.439626 33.777313 -0.847393 3.213849 -16.606915 -0.563307 -4.806975 13.358818 3.505491 -2.748274 6.865861 5.720431 -3.608948 0.697529 4.318205 -1.975354 -2.962053 -4.005504 -0.694154 -12.790123 -2.227466 -1.837363 31.237146 -0.607818 -2.445188 12.478427 0.000000 0.000000 0.000000 -2.204780 1.231075 -22.275364 22.641469 -33.694372 6.938296 13.763567 12.949826 -30.301068 0.000000 0.000000 0.000000 -7.125000 0.000000 0.000000 -20.207653 59.861578 7.514521 0.000000 0.000000 0.000000 -3.285259 3.841709 7.527678 -16.991173 -26.846055 -4.083298 -30.516571 -15.038027 -14.236228 0.000000 0.000000 0.000000 7.125000 0.000000 0.000000 -2.050939 13.577441 -1.513181
-0.055689 18.097396 6.612046 -171.901397 -17.739703 184.513815 0.000000 0.000000 0.000000 -11.948124 -9.192638 -21.889488 7.741500 15.924972 51.624984 0.380055 6.683222 -15.982236 0.106982 -2.108935 -5.806689 0.000000 0.000000 0.000000 28.200794 16.030136 -18.146946 -3.374550 -11.277930 33.223169 -0.733087 1.763426 -15.672653 -2.117490 -9.106348 26.128683 3.907403 -2.413861 7.457325 5.702536 -3.146124 1.185925 4.046814 -1.759990 -2.826994 -3.801407 -0.697497 -12.372109 -2.391789 -1.761151 30.911317 -0.671610 -2.366213 12.253210 0.000000 0.000000 0.000000 -2.735122 0.933802 -22.754732 22.777686 -33.844816 7.014077 13.521023 13.215115 -29.661620 0.000000 0.000000 0.000000 -7.125000 0.000000 0.000000 -19.983982 59.208481 7.113076 0.000000 0.000000 0.000000 -3.095578 2.507577 8.003979 -15.096574 -24.280398 -3.265607 -29.629073 -12.562054 -13.975521 0.000000 0.000000 0.000000 7.125000 0.000000 0.000000 -1.480662 14.006636 -1.078633
-0.126305 18.117795 6.061587 -172.554783 -19.932864 183.599045 0.000000 0.000000 0.000000 -10.202342 -9.142204 -32.098641 11.527628 18.183721 64.483328 0.198894 0.871421 -8.785357 0.318125 3.625546 10.025552 0.000000 0.000000 0.000000 29.053453 15.350275 -14.324589 -3.231013 -11.059922 32.482201 -0.905847 -1.203223 -18.453947 -2.055553 -8.979793 25.732844 4.216058 -2.042188 7.746975 5.120734 -2.602880 1.568798 3.210173 -1.474147 -2.653022 -4.135839 -0.894001 -12.644817 -2.593448 -1.808665 31.124442 -0.701798 -2.430257 12.403442 0.000000 0.000000 0.000000 -3.095757 1.307823 -21.313822 22.625997 -33.677307 6.929777 13.644387 13.801907 -29.607284 0.000000 0.000000 0.000000 -7.125000 0.000000 0.000000 -19.815288 59.185582 7.038955 0.000000 0.000000 0.000000 -3.416682 0.891281 11.114021 -14.114374 -22.897951 -2.872434 -30.472489 -13.896459 -16.684155 0.000000 0.000000 0.000000 7.125000 0.000000 0.000000 -1.736741 10.811761 -1.380759
